<?xml version="1.0" encoding="UTF-8" standalone="no"?>
<!-- Created with Inkscape (http://www.inkscape.org/) -->

<svg
   width="135.57253mm"
   height="136.34521mm"
   viewBox="0 0 135.57253 136.34521"
   version="1.1"
   id="svg1"
   xml:space="preserve"
   xmlns="http://www.w3.org/2000/svg"
   xmlnsSvg="http://www.w3.org/2000/svg"><defs
     id="defs1" /><g
     id="layer1"
     transform="translate(-63.572652,-47.819533)"><path
       style="fill:#6f9ae9;fill-opacity:0;stroke:#ffffff;stroke-width:1;stroke-linejoin:round;stroke-dasharray:none;stroke-opacity:1"
       d="m 119.04583,52.200262 c 0,0 -2.43875,5.765527 3.74434,2.887054 l 3.83031,-3.085381 4.41906,0.01623 3.81019,-3.529784 c 0,0 3.01469,-1.092437 4.60084,2.270228 l 4.90778,1.352398 c 0,0 3.12704,4.363039 3.52853,4.619569 0.40149,0.25653 10.60449,6.856247 0.38074,21.671634 0,0 4.8413,5.586705 -3.9745,7.524411 l -3.35221,3.660077 19.82053,6.105851 c 0,0 17.83976,1.402489 20.07332,0.04151 2.23355,-1.360982 8.15575,-5.911581 8.15575,-5.911581 0,0 4.08903,2.874728 -3.40776,8.213329 0,0 10.9748,-2.392524 12.86071,-0.161077 1.8859,2.23145 -9.10241,2.75209 -9.10241,2.75209 0,0 8.27518,0.58481 8.24403,3.09717 -0.0311,2.51236 -9.49298,0.48367 -9.49298,0.48367 0,0 8.4742,2.02029 6.65573,4.68874 0,0 -1.09324,0.41172 -9.4317,-1.74114 l -3.65682,0.38332 c 0,0 -16.38597,8.88033 -31.89224,4.8075 l -2.0623,19.52951 c 0,0 16.47247,36.63861 14.78144,43.03785 0,0 2.84836,6.33979 -2.19767,8.55713 0,0 -8.06235,1.64746 -9.85471,-4.66293 l -0.75816,-1.45094 c 0,0 -5.01641,-1.87571 -19.412,-27.25541 0,0 -12.43431,12.24113 -12.79858,16.99641 -0.36427,4.75527 -4.48938,16.00224 -5.96573,15.67349 -1.47635,-0.32874 -5.53529,-0.85596 -5.53529,-0.85596 l -0.65386,-1.63836 c 0,0 -13.458338,-1.64657 -15.191434,-7.51314 0,0 5.899726,-1.48267 8.204731,0.17748 2.305003,1.66015 6.891803,-18.44872 6.891803,-18.44872 0,0 5.26229,-14.86885 8.75817,-21.18527 0,0 -1.34246,-19.7067 -2.95745,-21.63496 0,0 -18.061394,4.18653 -30.141432,-7.0227 0,0 -6.549006,4.08042 -15.744393,0.84081 0,0 -1.328718,-2.28464 6.624797,-2.77223 0,0 -7.317025,1.58294 -7.496872,0.42459 0,0 -2.17758,-2.43937 8.250838,-2.83728 0,0 -7.479345,0.49154 -7.256234,-0.814756 0,0 0.255796,-2.16337 7.756457,-2.227161 0,0 2.121842,0.11195 2.926178,1.173187 0.804336,1.061237 -5.968096,-4.310949 -2.83286,-8.421368 0,0 1.097869,-2.264109 2.896967,3.391032 0,0 1.161661,3.887466 15.216538,3.031813 0,0 24.624136,-2.935968 25.393576,-4.573062 l 2.85339,-0.259269 c 0,0 -9.60845,-9.396235 -3.22445,-23.808437 0,0 -3.16902,-4.138998 -0.23669,-7.070071 0,0 -3.19252,-5.343321 3.04399,-8.527096 z"
       id="path2" /><path
       style="fill:#ffffff;fill-opacity:1;stroke:#ffffff;stroke-width:1.00319;stroke-linejoin:round;stroke-dasharray:none;stroke-opacity:1"
       id="path3"
       d="m 135.42815,62.143826 a 0.67476583,1.5900029 0 0 1 -0.67377,1.590001 0.67476583,1.5900029 0 0 1 -0.67576,-1.585328 0.67476583,1.5900029 0 0 1 0.67179,-1.594661 0.67476583,1.5900029 0 0 1 0.67773,1.58064"
       transform="matrix(0.99811365,0.06139332,-0.17328371,0.98487195,0,0)" /><path
       style="fill:#ffffff;fill-opacity:1;stroke:#ffffff;stroke-width:1.00319;stroke-linejoin:round;stroke-dasharray:none;stroke-opacity:1"
       id="path3-6"
       d="m 149.00562,62.652809 a 0.67476583,1.5900029 0 0 1 -0.67377,1.590001 0.67476583,1.5900029 0 0 1 -0.67576,-1.585327 0.67476583,1.5900029 0 0 1 0.67179,-1.594661 0.67476583,1.5900029 0 0 1 0.67773,1.58064"
       transform="matrix(0.99811365,0.06139332,-0.17328371,0.98487195,0,0)" /><path
       style="fill:#ffffff;fill-opacity:1;stroke:#ffffff;stroke-width:0.1;stroke-linejoin:round;stroke-dasharray:none;stroke-opacity:1"
       d="m 130.75004,68.639737 -5.0266,6.310894 1.59212,2.544379 1.39939,-0.0037 -1.31555,-2.608461 z"
       id="path4" /><path
       style="fill:#ffffff;fill-opacity:1;stroke:#ffffff;stroke-width:0.1;stroke-linejoin:round;stroke-dasharray:none;stroke-opacity:1"
       d="m 121.38687,78.739707 0.16635,1.854688 -0.31917,0.493275 0.33983,0.966508 -0.46611,1.306528 -1.64497,-1.988004 -0.10192,-0.87538 z"
       id="path5" /><path
       style="fill:#ffffff;fill-opacity:0;stroke:#ffffff;stroke-width:0.799999;stroke-linejoin:round;stroke-dasharray:none;stroke-opacity:1"
       d="m 121.32531,80.460791 c 0,0 6.68257,3.030196 14.22692,-0.407162"
       id="path9" /><path
       style="fill:#ffffff;fill-opacity:1;stroke:#ffffff;stroke-width:0.799999;stroke-linejoin:round;stroke-dasharray:none;stroke-opacity:0"
       d="m 121.37297,81.778133 c 0,0 5.90852,8.593117 15.62534,-0.139742 l -0.3337,-0.457364 c 0,0 -7.23072,7.278004 -15.29164,0.597106 z"
       id="path10" /><path
       style="fill:#ffffff;fill-opacity:1;stroke:#ffffff;stroke-width:0.799999;stroke-linejoin:round;stroke-dasharray:none;stroke-opacity:0"
       d="m 125.6673,86.544268 3.47601,-0.0643 c 0,0 0.4966,1.525968 -1.24547,1.292357 -1.74207,-0.233614 -2.23054,-1.228058 -2.23054,-1.228058 z"
       id="path11" /><path
       style="fill:#ffffff;fill-opacity:1;stroke:#ffffff;stroke-width:0.8;stroke-linejoin:round;stroke-dasharray:none;stroke-opacity:0"
       d="m 122.7103,64.208027 3.13553,-1.669376 0.21604,1.759217 z"
       id="path12" /><path
       style="fill:#ffffff;fill-opacity:1;stroke:#ffffff;stroke-width:0.799999;stroke-linejoin:round;stroke-dasharray:none;stroke-opacity:0"
       d="m 138.41095,62.976661 -1.29663,1.88935 c 0,0 2.33026,0.828725 3.24367,1.692259 0,0 0.4766,-1.510241 -1.94704,-3.581609 z"
       id="path13" /><path
       style="fill:#ffffff;fill-opacity:1;stroke:#ffffff;stroke-width:0.799999;stroke-linejoin:round;stroke-dasharray:none;stroke-opacity:0"
       d="m 135.36898,79.793054 -0.0752,-1.5665 c 0,0 3.26542,2.693802 3.39375,2.57361 0.12832,-0.12019 -0.91747,3.815212 -0.91747,3.815212 0,0 -0.24947,-1.213297 -0.40072,-2.315302"
       id="path14" /></g></svg>
