<?xml version="1.0" encoding="UTF-8" standalone="no"?>
<!-- Created with Inkscape (http://www.inkscape.org/) -->

<svg
   width="135.57253mm"
   height="136.34521mm"
   viewBox="0 0 135.57253 136.34521"
   version="1.1"
   id="svg1"
   xml:space="preserve"
   xmlnsSvg="http://www.w3.org/2000/svg"
   sodipodi:docname="pip-boy.svg"
   xmlns:inkscape="http://www.inkscape.org/namespaces/inkscape"
   xmlns:sodipodi="http://sodipodi.sourceforge.net/DTD/sodipodi-0.dtd"
   xmlns="http://www.w3.org/2000/svg"
   xmlns:svg="http://www.w3.org/2000/svg"><sodipodi:namedview
     id="namedview71"
     pagecolor="#000000"
     bordercolor="#666666"
     borderopacity="1.0"
     inkscape:pageshadow="2"
     inkscape:pageopacity="0.18431373"
     inkscape:pagecheckerboard="true"
     inkscape:document-units="mm"
     showgrid="false" /><defs
     id="defs1"><inkscape:path-effect
       effect="powerstroke"
       id="path-effect2401"
       is_visible="true"
       lpeversion="1"
       offset_points=""
       not_jump="false"
       sort_points="true"
       interpolator_type="CentripetalCatmullRom"
       interpolator_beta="0.2"
       start_linecap_type="zerowidth"
       linejoin_type="round"
       miter_limit="4"
       scale_width="1"
       end_linecap_type="zerowidth" /><inkscape:path-effect
       effect="fill_between_many"
       method="bsplinespiro"
       linkedpaths="#path1440,0,1"
       join="true"
       close="true"
       autoreverse="true" /></defs><g
     id="layer1"
     transform="translate(-63.572652,-47.819533)"><path
       style="fill:#ffffff;fill-opacity:1;stroke:#ffffff;stroke-width:1.00319;stroke-linejoin:round;stroke-dasharray:none;stroke-opacity:1"
       id="path3"
       d="m 135.42815,62.143826 a 0.67476583,1.5900029 0 0 1 -0.67377,1.590001 0.67476583,1.5900029 0 0 1 -0.67576,-1.585328 0.67476583,1.5900029 0 0 1 0.67179,-1.594661 0.67476583,1.5900029 0 0 1 0.67773,1.58064"
       transform="matrix(0.99811365,0.06139332,-0.17328371,0.98487195,0,0)" /><path
       style="fill:#ffffff;fill-opacity:1;stroke:#ffffff;stroke-width:1.00319;stroke-linejoin:round;stroke-dasharray:none;stroke-opacity:1"
       id="path3-6"
       d="m 149.00562,62.652809 a 0.67476583,1.5900029 0 0 1 -0.67377,1.590001 0.67476583,1.5900029 0 0 1 -0.67576,-1.585327 0.67476583,1.5900029 0 0 1 0.67179,-1.594661 0.67476583,1.5900029 0 0 1 0.67773,1.58064"
       transform="matrix(0.99811365,0.06139332,-0.17328371,0.98487195,0,0)" /><path
       style="fill:#ffffff;fill-opacity:1;stroke:#ffffff;stroke-width:0.1;stroke-linejoin:round;stroke-dasharray:none;stroke-opacity:1"
       d="m 130.75004,68.639737 -5.0266,6.310894 1.59212,2.544379 1.39939,-0.0037 -1.31555,-2.608461 z"
       id="path4" /><path
       style="fill:#ffffff;fill-opacity:1;stroke:#ffffff;stroke-width:0.1;stroke-linejoin:round;stroke-dasharray:none;stroke-opacity:1"
       d="m 121.38687,78.739707 0.16635,1.854688 -0.31917,0.493275 0.33983,0.966508 -0.46611,1.306528 -1.64497,-1.988004 -0.10192,-0.87538 z"
       id="path5" /><path
       style="fill:#ffffff;fill-opacity:0;stroke:#ffffff;stroke-width:0.799999;stroke-linejoin:round;stroke-dasharray:none;stroke-opacity:1"
       d="m 121.32531,80.460791 c 0,0 6.68257,3.030196 14.22692,-0.407162"
       id="path9" /><path
       style="fill:#ffffff;fill-opacity:1;stroke:#ffffff;stroke-width:0.799999;stroke-linejoin:round;stroke-dasharray:none;stroke-opacity:0"
       d="m 121.37297,81.778133 c 0,0 5.90852,8.593117 15.62534,-0.139742 l -0.3337,-0.457364 c 0,0 -7.23072,7.278004 -15.29164,0.597106 z"
       id="path10" /><path
       style="fill:#ffffff;fill-opacity:1;stroke:#ffffff;stroke-width:0.799999;stroke-linejoin:round;stroke-dasharray:none;stroke-opacity:0"
       d="m 125.6673,86.544268 3.47601,-0.0643 c 0,0 0.4966,1.525968 -1.24547,1.292357 -1.74207,-0.233614 -2.23054,-1.228058 -2.23054,-1.228058 z"
       id="path11" /><path
       style="fill:#ffffff;fill-opacity:1;stroke:#ffffff;stroke-width:0.8;stroke-linejoin:round;stroke-dasharray:none;stroke-opacity:0"
       d="m 122.7103,64.208027 3.13553,-1.669376 0.21604,1.759217 z"
       id="path12" /><path
       style="fill:#ffffff;fill-opacity:1;stroke:#ffffff;stroke-width:0.799999;stroke-linejoin:round;stroke-dasharray:none;stroke-opacity:0"
       d="m 138.41095,62.976661 -1.29663,1.88935 c 0,0 2.33026,0.828725 3.24367,1.692259 0,0 0.4766,-1.510241 -1.94704,-3.581609 z"
       id="path13" /><path
       style="fill:#ffffff;fill-opacity:1;stroke:#ffffff;stroke-width:0.799999;stroke-linejoin:round;stroke-dasharray:none;stroke-opacity:0"
       d="m 135.36898,79.793054 -0.0752,-1.5665 c 0,0 3.26542,2.693802 3.39375,2.57361 0.12832,-0.12019 -0.91747,3.815212 -0.91747,3.815212 0,0 -0.24947,-1.213297 -0.40072,-2.315302"
       id="path14" /></g><g
     inkscape:groupmode="layer"
     id="layer4"
     inkscape:label="Layer 1"><path
       d="m 55.47734,4.1719075 c 0,0 -2.43876,5.7655268 3.74433,2.8870542 l 3.83031,-3.0853811 4.41906,0.01623 3.81019,-3.52978389 c 0,0 3.01469,-1.09243694 4.60084,2.27022799 l 4.90778,1.3523979 c 0,0 3.12705,4.3630392 3.52854,4.6195694 0.40148,0.2565299 10.60448,6.856249 0.38074,21.671636 0,0 4.84129,5.586707 -3.97451,7.524412 l -3.35221,3.660076 19.82053,6.105851 c 0,0 17.83979,1.40249 20.07335,0.04151 2.23355,-1.360982 8.15575,-5.91158 8.15575,-5.91158 0,0 4.08903,2.874727 -3.40776,8.213328 0,0 10.9748,-2.392524 12.86071,-0.161076 1.8859,2.231449 -9.10241,2.75209 -9.10241,2.75209 0,0 8.27518,0.584809 8.24402,3.097171 -0.0311,2.512359 -9.49297,0.483669 -9.49297,0.483669 0,0 8.4742,2.020289 6.65573,4.688739 0,0 -1.09324,0.411721 -9.4317,-1.741138 l -3.65682,0.383317 c 0,0 -16.38598,8.880333 -31.89226,4.807501 l -2.0623,19.529509 c 0,0 16.47247,36.638633 14.78144,43.037873 0,0 2.84837,6.33979 -2.19768,8.55713 0,0 -8.06235,1.64746 -9.8547,-4.66293 l -0.75817,-1.45094 c 0,0 -5.01641,-1.87571 -19.412,-27.25542 0,0 -9.411,10.49103 -12.79858,16.6027 -2.769611,4.99676 -4.48938,16.39596 -5.96573,16.06721 -1.47634,-0.32874 -5.53529,-0.85596 -5.53529,-0.85596 l -0.65386,-1.63836 c 0,0 -13.45833,-1.64657 -15.19143,-7.51314 0,0 5.89973,-1.48267 8.20473,0.17748 2.30501,1.66015 6.8918,-18.44872 6.8918,-18.44872 0,0 5.26229,-14.868872 8.75818,-21.185291 0,0 -1.34247,-19.706701 -2.95746,-21.634961 0,0 -18.06139,4.186531 -30.14143,-7.0227 0,0 -6.549002,4.08042 -15.7443919,0.840811 0,0 -1.32871999,-2.28464 6.6248001,-2.77223 0,0 -7.31703012,1.582939 -7.49688012,0.42459 0,0 -2.17757588,-2.439371 8.25084012,-2.83728 0,0 -7.4793402,0.49154 -7.2562302,-0.814756 0,0 0.25579,-2.163371 7.7564502,-2.227162 0,0 2.1218508,0.111951 2.9261808,1.173187 0.804341,1.061238 -5.9680908,-4.310949 -2.8328608,-8.421368 0,0 1.0978698,-2.264108 2.8969708,3.391033 0,0 1.161661,3.887464 15.216541,3.031812 0,0 24.62413,-2.935967 25.39358,-4.573061 l 2.85338,-0.25927 c 0,0 -9.60845,-9.396235 -3.22444,-23.808437 0,0 -3.16902,-4.138998 -0.2367,-7.070072 0,0 -3.19252,-5.3433222 3.044,-8.5270975 z"
       style="fill:#6f9ae9;fill-opacity:0;stroke:#ffffff;stroke-width:0.264583;stroke-linejoin:round;stroke-dasharray:none;stroke-opacity:1"
       id="path1440"
       sodipodi:nodetypes="cccccccsccccsccscccccccccccccascccsccccccccccscccccccc"
       inkscape:path-effect="#path-effect2401"
       inkscape:original-d="m 55.47734,4.1719075 c 0,0 -2.43876,5.7655268 3.74433,2.8870542 l 3.83031,-3.0853811 4.41906,0.01623 3.81019,-3.52978389 c 0,0 3.01469,-1.09243694 4.60084,2.27022799 l 4.90778,1.3523979 c 0,0 3.12705,4.3630392 3.52854,4.6195694 0.40148,0.2565299 10.60448,6.856249 0.38074,21.671636 0,0 4.84129,5.586707 -3.97451,7.524412 l -3.35221,3.660076 19.82053,6.105851 c 0,0 17.83979,1.40249 20.07335,0.04151 2.23355,-1.360982 8.15575,-5.91158 8.15575,-5.91158 0,0 4.08903,2.874727 -3.40776,8.213328 0,0 10.9748,-2.392524 12.86071,-0.161076 1.8859,2.231449 -9.10241,2.75209 -9.10241,2.75209 0,0 8.27518,0.584809 8.24402,3.097171 -0.0311,2.512359 -9.49297,0.483669 -9.49297,0.483669 0,0 8.4742,2.020289 6.65573,4.688739 0,0 -1.09324,0.411721 -9.4317,-1.741138 l -3.65682,0.383317 c 0,0 -16.38598,8.880333 -31.89226,4.807501 l -2.0623,19.529509 c 0,0 16.47247,36.638633 14.78144,43.037873 0,0 2.84837,6.33979 -2.19768,8.55713 0,0 -8.06235,1.64746 -9.8547,-4.66293 l -0.75817,-1.45094 c 0,0 -5.01641,-1.87571 -19.412,-27.25542 0,0 -9.411,10.49103 -12.79858,16.6027 -2.769611,4.99676 -4.48938,16.39596 -5.96573,16.06721 -1.47634,-0.32874 -5.53529,-0.85596 -5.53529,-0.85596 l -0.65386,-1.63836 c 0,0 -13.45833,-1.64657 -15.19143,-7.51314 0,0 5.89973,-1.48267 8.20473,0.17748 2.30501,1.66015 6.8918,-18.44872 6.8918,-18.44872 0,0 5.26229,-14.868872 8.75818,-21.185291 0,0 -1.34247,-19.706701 -2.95746,-21.634961 0,0 -18.06139,4.186531 -30.14143,-7.0227 0,0 -6.549002,4.08042 -15.7443919,0.840811 0,0 -1.32871999,-2.28464 6.6248001,-2.77223 0,0 -7.31703012,1.582939 -7.49688012,0.42459 0,0 -2.17757588,-2.439371 8.25084012,-2.83728 0,0 -7.4793402,0.49154 -7.2562302,-0.814756 0,0 0.25579,-2.163371 7.7564502,-2.227162 0,0 2.1218508,0.111951 2.9261808,1.173187 0.804341,1.061238 -5.9680908,-4.310949 -2.8328608,-8.421368 0,0 1.0978698,-2.264108 2.8969708,3.391033 0,0 1.161661,3.887464 15.216541,3.031812 0,0 24.62413,-2.935967 25.39358,-4.573061 l 2.85338,-0.25927 c 0,0 -9.60845,-9.396235 -3.22444,-23.808437 0,0 -3.16902,-4.138998 -0.2367,-7.070072 0,0 -3.19252,-5.3433222 3.044,-8.5270975 z" /></g></svg>
